<svg width="25" height="35" viewBox="0 0 25 35" fill="none" xmlns="http://www.w3.org/2000/svg">
<g id="Group">
<path id="Vector" d="M11.3721 0.0166779C8.2344 0.331131 5.71878 1.49324 3.61331 3.59871C-0.0917682 7.30379 -1.0488 12.8887 1.2139 17.5782C1.61722 18.4122 11.3994 34.2784 11.7412 34.6544C12.0694 35.0098 12.6914 35.0645 13.0742 34.7637C13.2657 34.6134 22.7676 18.8223 23.2735 17.8175C23.834 16.6964 24.2032 15.5753 24.4424 14.2628C24.586 13.4698 24.5996 11.3575 24.4698 10.5372C24.0391 7.81648 22.8701 5.49226 20.9766 3.59871C19.0967 1.71883 16.711 0.508865 14.0791 0.112381C13.5323 0.0303497 11.8233 -0.0311737 11.3721 0.0166779ZM13.9698 6.36043C16.041 6.9825 17.5723 8.51375 18.2149 10.6055C18.3858 11.1661 18.4063 11.3165 18.4063 12.2803C18.4063 13.2374 18.3858 13.4014 18.2217 13.9415C17.3467 16.7921 14.9131 18.5489 12.0215 18.4122C9.32132 18.2891 7.18167 16.5938 6.36819 13.9415C6.20413 13.4014 6.18362 13.2374 6.18362 12.2803C6.18362 11.3165 6.20413 11.1661 6.37503 10.6055C7.07229 8.32234 8.76761 6.76375 11.1397 6.23054C11.8438 6.07332 13.2041 6.13484 13.9698 6.36043Z" fill="#6662C9"/>
<path id="Vector_2" d="M11.4062 8.28809C9.58789 8.67773 8.19336 10.4141 8.19336 12.2803C8.19336 14.4951 10.0801 16.3818 12.2949 16.3818C14.1816 16.3818 15.9043 14.9805 16.2939 13.1348C16.5879 11.7402 16.1846 10.4209 15.1729 9.40234C14.1543 8.38379 12.8008 7.9873 11.4062 8.28809Z" fill="#6662C9"/>
</g>
</svg>
