<svg width="25" height="37" viewBox="0 0 25 37" fill="none" xmlns="http://www.w3.org/2000/svg">
<g id="Group">
<path id="Vector" d="M11.5129 0.0185394C8.40248 0.322258 5.79824 1.51543 3.66351 3.627C0.685148 6.55571 -0.583957 10.7354 0.252332 14.8067C0.435728 15.6889 0.758506 16.6652 1.13997 17.4679C1.30136 17.8077 3.78088 22.2767 6.65654 27.4038C12.1218 37.1661 12.0191 36.9998 12.5032 36.9998C12.9874 36.9998 12.8847 37.1661 18.3572 27.4038C21.2256 22.2695 23.7124 17.8005 23.8665 17.4679C25.2309 14.5753 25.3703 11.0826 24.2479 8.09599C23.5877 6.35323 22.6561 4.91418 21.3429 3.627C19.4429 1.74684 17.2349 0.625973 14.5206 0.148705C13.9337 0.0474625 12.0631 -0.0393143 11.5129 0.0185394ZM13.1268 6.19414C14.704 6.36769 15.9804 6.99682 17.0661 8.13215C18.2545 9.37595 18.7974 10.8439 18.7167 12.5867C18.6653 13.6208 18.548 14.098 18.1152 14.9947C17.3376 16.5712 15.9657 17.721 14.2272 18.2416C13.6403 18.4152 13.4495 18.4369 12.5032 18.4369C11.5569 18.4369 11.3662 18.4152 10.7793 18.2416C9.52486 17.8656 8.44649 17.1641 7.65422 16.1879C7.17739 15.6094 6.64187 14.5753 6.45114 13.8956C6.26774 13.2303 6.22372 11.8346 6.37044 11.1404C6.90596 8.51541 9.10672 6.50509 11.7696 6.20137C12.0704 6.16521 12.3565 6.13629 12.3932 6.12906C12.4372 6.12906 12.7673 6.15798 13.1268 6.19414Z" fill="#6662C9"/>
</g>
</svg>
