<svg version="1.1" id="Layer_1" xmlns="http://www.w3.org/2000/svg" xmlns:xlink="http://www.w3.org/1999/xlink" x="0px" y="0px"
	 width="100%" viewBox="0 0 916 410" enable-background="new 0 0 916 410" xml:space="preserve">
<path fill="#ffffff" opacity="1.000000" stroke="none" 
	d="
M548.000000,411.000000 
	C365.333374,411.000000 183.166733,411.000000 1.000073,411.000000 
	C1.000049,274.333405 1.000049,137.666779 1.000024,1.000128 
	C306.333221,1.000086 611.666443,1.000086 916.999756,1.000043 
	C916.999878,137.666534 916.999878,274.333069 916.999939,410.999817 
	C794.166687,411.000000 671.333313,411.000000 548.000000,411.000000 
M738.868286,233.996292 
	C746.573242,233.947281 754.278137,233.898285 762.440369,234.000961 
	C762.440369,234.000961 762.917053,234.070633 762.983398,234.810410 
	C762.781372,235.576599 762.757751,236.457291 762.350647,237.091888 
	C755.580688,247.643890 746.610107,255.430573 733.719604,258.941650 
	C733.240601,258.960449 732.761658,258.979248 731.862976,258.354248 
	C728.677368,256.500275 724.910583,255.222076 722.405701,252.693680 
	C710.885132,241.064926 707.890381,226.652634 708.859619,210.715286 
	C709.738586,196.262634 714.795776,183.545532 723.092712,172.070572 
	C728.449036,164.662598 735.359009,158.977631 745.773987,157.990768 
	C752.747437,158.959778 757.231201,163.729416 761.894958,168.347610 
	C765.759460,172.174408 770.121338,175.240997 776.909424,174.972366 
	C779.367371,174.917648 781.825378,174.862930 785.086731,174.896545 
	C799.132080,175.492691 807.887756,161.478607 804.118958,149.270462 
	C800.836609,138.638123 792.725403,132.032242 784.240601,126.205826 
	C776.465820,120.866928 767.959656,116.333229 757.140869,116.026596 
	C747.829834,116.066505 738.518860,116.106407 728.323486,116.010048 
	C725.475159,116.552795 722.539612,116.818146 719.792297,117.682129 
	C697.618530,124.655373 681.965149,139.519577 670.029114,158.073822 
	C669.690369,152.706604 669.459717,147.329865 668.988953,141.974243 
	C668.155334,132.490067 660.132690,122.905922 647.457581,124.006744 
	C646.584961,124.060951 645.712280,124.115158 644.012512,124.081543 
	C634.504211,122.755913 625.029602,132.760208 624.995178,143.786957 
	C624.930481,164.522827 624.884155,185.258789 624.202087,205.721558 
	C610.969666,184.611099 597.537903,163.639450 586.869324,141.018433 
	C583.328613,133.510880 578.581299,126.260864 567.495605,126.993385 
	C565.124023,125.594154 562.009766,124.743591 560.503784,122.704941 
	C551.969360,111.151978 541.823792,101.615562 528.393555,96.158859 
	C509.572906,88.512009 491.510071,91.075401 474.352234,101.240479 
	C469.520508,104.102997 465.143463,107.733009 460.659607,110.938286 
	C451.844177,102.801521 442.675293,96.420006 431.333466,93.712830 
	C416.223175,90.106171 401.586334,91.139763 388.239838,99.418365 
	C378.830750,105.254669 369.696777,111.669868 361.121307,118.662224 
	C356.249603,122.634514 352.749451,128.288895 347.919678,133.024307 
	C344.695587,132.412308 341.471466,131.800308 337.417542,131.023239 
	C336.575867,131.071945 335.734192,131.120667 334.067810,131.042450 
	C327.212067,131.457794 321.457458,133.668060 316.938995,139.373749 
	C312.627686,144.817825 312.654724,151.188889 312.136017,157.310898 
	C311.273285,167.493088 310.944092,177.760544 311.152649,187.976532 
	C311.256958,193.085938 309.113403,194.268112 304.130615,194.361069 
	C299.040771,194.606308 293.950928,194.851547 287.988037,195.003769 
	C286.405670,195.003769 284.823273,195.003769 282.007263,195.003769 
	C282.007263,184.783234 282.007294,175.098373 282.007294,165.413498 
	C282.007294,161.435120 282.345886,157.421143 281.932434,153.486206 
	C281.208252,146.594757 280.582581,139.609161 278.880615,132.926605 
	C276.991547,125.509285 269.931824,120.838890 262.176941,121.016243 
	C258.950806,121.080681 255.724670,121.145119 251.727386,121.157188 
	C245.039169,119.749207 241.253494,124.446793 236.358017,127.858246 
	C229.580246,124.223839 223.043823,119.985794 215.947418,117.148270 
	C210.388474,114.925514 204.136017,114.437202 197.403519,112.999863 
	C188.927994,112.942924 180.452469,112.885986 171.569366,112.153091 
	C159.021561,112.721436 147.860916,117.223625 138.398102,125.215355 
	C112.175316,147.361588 112.816841,186.187042 136.131775,209.467041 
	C145.755096,219.075974 157.828461,225.134811 170.491501,230.109436 
	C178.392548,233.213364 186.149887,236.868408 193.522385,241.065399 
	C198.213699,243.736038 198.372360,246.831818 194.030075,250.167618 
	C190.083191,253.199677 185.094742,254.875931 179.739853,256.960571 
	C178.893341,256.963287 178.046829,256.966003 176.811996,256.303650 
	C172.121933,253.612167 167.235992,251.206039 162.792206,248.155792 
	C157.436020,244.479233 152.594528,239.910889 144.499847,241.013565 
	C141.634308,241.064545 138.768784,241.115509 135.072800,241.073776 
	C133.432037,241.157150 131.625092,240.819031 130.176620,241.390106 
	C117.763390,246.284317 111.651718,257.617920 115.640007,271.271240 
	C118.458153,280.918762 125.687256,286.547699 133.355026,291.807922 
	C142.894745,298.352325 153.228104,303.005432 165.828949,303.976746 
	C176.957153,305.696228 188.037460,306.017487 199.833984,302.992767 
	C201.274002,302.801819 202.757919,302.772308 204.147095,302.394440 
	C215.364624,299.343536 225.292038,293.926849 233.973145,286.835724 
	C234.549789,299.408508 243.681396,307.872528 254.905930,307.972565 
	C256.716614,307.915466 258.527283,307.858368 261.149719,307.882080 
	C263.104858,307.762482 265.137878,307.948334 267.002319,307.472992 
	C277.917175,304.690338 282.558990,295.564453 282.884338,285.167542 
	C283.372833,269.556030 282.980103,253.917770 283.055786,238.291336 
	C283.064148,236.564178 283.684357,234.839981 284.951080,233.018402 
	C293.592804,232.697586 302.234497,232.376785 310.984192,232.978775 
	C311.321564,247.499161 310.940216,262.083588 312.226746,276.519379 
	C313.231903,287.798004 321.120392,296.261475 335.583221,295.981934 
	C336.196167,295.916779 336.809143,295.851624 338.191132,295.891357 
	C340.747528,295.589478 343.303955,295.287628 346.147736,295.632111 
	C351.259857,303.985321 357.739716,311.105835 365.538666,317.014862 
	C375.094727,324.255188 385.690704,329.017670 397.751740,329.978027 
	C409.700836,330.929504 420.940460,328.295685 431.241272,322.250824 
	C437.103485,318.810760 442.614929,314.773010 447.311371,311.651123 
	C455.196747,316.464844 462.224487,321.660126 469.982727,325.297302 
	C484.828583,332.257172 500.226318,331.952789 515.114258,325.301147 
	C528.967102,319.111938 540.347290,309.139343 551.888184,299.504242 
	C552.811218,298.733612 554.329041,298.195984 555.506287,298.297180 
	C559.354309,298.628143 563.172668,299.304840 567.841187,299.947388 
	C572.096680,298.260284 576.877136,297.307190 580.490906,294.722778 
	C586.694214,290.286407 587.685425,282.910828 587.899902,275.921661 
	C588.307739,262.626892 588.109436,249.313538 588.791931,236.275314 
	C592.047791,240.876785 595.095398,245.643951 598.599365,250.048065 
	C608.407349,262.375702 618.267395,274.667542 628.381653,286.743439 
	C633.700745,293.094147 640.071289,298.068756 649.836670,297.982788 
	C650.612488,297.931580 651.388367,297.880371 652.976990,297.966064 
	C656.094360,297.283051 659.455017,297.126007 662.283264,295.817902 
	C670.590637,291.975525 672.897949,284.232513 674.791748,276.273102 
	C681.815430,282.845520 688.287048,290.185730 696.032043,295.755035 
	C702.597961,300.476440 710.457214,303.677094 719.852234,303.977539 
	C728.232056,304.321869 736.611023,304.857391 744.992310,304.897156 
	C747.597046,304.909485 750.208130,303.578033 753.686829,302.991119 
	C765.889038,301.402283 775.847595,295.202301 784.979065,287.489258 
	C794.233154,279.672546 801.106445,269.752228 806.727844,259.281006 
	C812.837952,247.899551 817.164612,235.960632 815.240906,222.169739 
	C813.037170,206.371017 798.380920,194.593491 783.998352,193.996536 
	C783.998352,193.996536 784.063782,193.974091 783.724915,193.244492 
	C781.849121,193.218201 779.973328,193.191910 777.383789,193.182526 
	C772.423523,192.786194 767.450378,191.947800 762.505859,192.091751 
	C753.980164,192.339981 745.472168,193.199158 736.543030,193.150208 
	C724.398682,192.713837 716.068176,201.841248 716.001953,213.891891 
	C715.936401,225.816681 726.883606,235.003098 738.868286,233.996292 
z"/>
<path fill="#6A5ACD" opacity="1.000000" stroke="none" 
	d="
M762.917053,234.070633 
	C762.917053,234.070633 762.440369,234.000961 761.891602,233.663788 
	C753.491028,233.258606 745.639282,233.190598 737.412231,233.117859 
	C726.150024,230.368240 720.019836,223.272781 720.056274,213.458603 
	C720.093201,203.505981 726.512634,196.039642 736.956787,193.801971 
	C745.472168,193.199158 753.980164,192.339981 762.505859,192.091751 
	C767.450378,191.947800 772.423523,192.786194 778.000122,193.454315 
	C780.432251,193.808762 782.248047,193.891434 784.063782,193.974091 
	C784.063782,193.974091 783.998352,193.996536 784.144043,194.295898 
	C785.229553,194.920319 786.167419,195.251205 787.109436,195.569611 
	C805.163208,201.671707 813.855652,216.101471 811.189697,235.074127 
	C809.149475,249.594009 801.640686,261.502655 793.459106,273.083099 
	C785.332581,284.585724 774.987366,293.522156 761.925537,299.096802 
	C758.903870,300.386414 755.853516,301.608582 752.816345,302.861755 
	C750.208130,303.578033 747.597046,304.909485 744.992310,304.897156 
	C736.611023,304.857391 728.232056,304.321869 719.247314,303.601624 
	C707.707336,300.047668 697.420166,295.466248 689.262878,287.364899 
	C683.790527,281.930084 679.069824,275.738525 673.927002,269.433838 
	C673.780518,265.328735 673.785767,261.672791 673.648621,258.022217 
	C672.496582,227.346130 671.318359,196.671005 670.434082,165.824081 
	C676.965088,154.237076 684.431274,143.786270 694.155457,134.998199 
	C704.316772,125.815056 716.265503,120.089745 729.207825,116.146317 
	C738.518860,116.106407 747.829834,116.066505 757.772095,116.390350 
	C772.022583,120.455963 783.577393,127.445122 793.318481,137.743835 
	C806.038391,151.191864 802.489746,169.694260 784.283325,174.808212 
	C781.825378,174.862930 779.367371,174.917648 776.300903,174.603851 
	C771.807739,171.483383 767.732361,168.960876 764.082642,165.926407 
	C758.420593,161.218857 753.004761,156.256165 744.442078,157.017395 
	C736.504272,156.724457 730.498291,160.236618 725.323303,165.079544 
	C710.023926,179.397141 704.155029,197.747574 704.437500,218.077423 
	C704.605652,230.186264 707.721924,241.859268 716.264221,251.125992 
	C720.466248,255.684418 725.080139,260.185303 732.282654,258.998016 
	C732.761658,258.979248 733.240601,258.960449 734.279236,259.287781 
	C736.615601,259.430206 738.488281,259.519592 740.153381,258.974731 
	C750.101624,255.719666 757.920532,249.558212 763.860168,241.001419 
	C765.207336,239.060669 766.266357,236.919952 767.923767,234.070633 
	C765.457947,234.070633 764.187500,234.070633 762.917053,234.070633 
M727.053223,213.487350 
	C728.310486,212.832153 729.744873,212.381256 730.786743,211.477722 
	C732.739929,209.783951 734.526855,207.882874 736.255676,205.953918 
	C736.930237,205.201218 737.261230,204.140579 738.532349,202.985245 
	C740.708008,201.836700 740.865295,200.575912 738.309631,200.075638 
	C732.507324,198.939896 725.417419,206.834213 727.053223,213.487350 
M767.259033,246.476364 
	C760.514954,251.687759 753.751709,256.874817 747.051514,262.142090 
	C746.238159,262.781494 745.764404,263.852936 745.133240,264.724121 
	C746.073975,265.131866 747.014771,265.539642 748.738708,266.016144 
	C750.699707,265.296448 753.004639,265.010559 754.559021,263.778107 
	C759.842163,259.589233 764.953918,255.167084 769.898438,250.583038 
	C770.853821,249.697235 770.759277,247.679001 771.149109,246.183167 
	C770.037354,246.181412 768.925598,246.179657 767.259033,246.476364 
M709.270813,134.090042 
	C691.533325,144.679993 680.938416,160.753464 674.338867,179.828110 
	C673.933777,180.998993 674.635193,182.552719 675.204285,184.540329 
	C678.994629,185.636932 679.199890,182.371384 679.957520,180.311462 
	C685.039551,166.493668 692.401123,154.236847 703.844849,144.721985 
	C706.652893,142.387253 709.729858,140.370117 712.474670,137.968674 
	C713.262756,137.279129 713.321350,135.755707 713.714417,134.614609 
	C712.463013,134.413971 711.211670,134.213318 709.270813,134.090042 
z"/>
<path fill="#6A5ACC" opacity="1.000000" stroke="none" 
	d="
M652.164185,297.829163 
	C651.388367,297.880371 650.612488,297.931580 649.259216,297.618408 
	C644.982117,295.427216 640.800659,294.183105 637.705872,291.624603 
	C633.916565,288.491913 630.802429,284.436035 627.804871,280.470520 
	C613.971313,262.170288 597.376770,245.962616 586.182251,225.656357 
	C585.864685,225.080139 585.108826,224.745514 584.039612,223.878448 
	C584.039612,225.722870 584.039612,226.870102 584.041748,228.484589 
	C584.015747,243.929642 583.793640,258.910370 584.018799,273.884369 
	C584.209229,286.547607 579.809326,295.866821 567.002441,299.848541 
	C563.172668,299.304840 559.354309,298.628143 555.506287,298.297180 
	C554.329041,298.195984 552.811218,298.733612 551.888184,299.504242 
	C540.347290,309.139343 528.967102,319.111938 515.114258,325.301147 
	C500.226318,331.952789 484.828583,332.257172 469.982727,325.297302 
	C462.224487,321.660126 455.196747,316.464844 447.311371,311.651123 
	C442.614929,314.773010 437.103485,318.810760 431.241272,322.250824 
	C420.940460,328.295685 409.700836,330.929504 397.751740,329.978027 
	C385.690704,329.017670 375.094727,324.255188 365.538666,317.014862 
	C357.739716,311.105835 351.259857,303.985321 346.199036,295.019653 
	C354.772522,290.725708 358.912933,283.806763 360.746643,275.347107 
	C364.723663,281.110748 368.051056,286.969025 372.374756,291.964996 
	C396.997131,320.415558 431.395691,321.419586 457.877289,294.717255 
	C459.002716,293.582458 460.200745,292.519684 461.507446,291.289185 
	C462.935242,292.808472 464.060272,294.024811 465.205658,295.221680 
	C483.517334,314.355591 507.763367,319.389709 529.760681,308.295380 
	C544.075745,301.075592 554.349121,289.542542 561.859558,275.657257 
	C579.594910,242.867935 582.899963,208.001221 575.245850,171.976517 
	C570.303955,148.717484 560.447449,127.886101 542.226013,111.725296 
	C524.039246,95.595253 499.624542,92.949036 478.918549,105.638855 
	C472.501373,109.571655 466.935364,114.893333 460.886108,119.652748 
	C457.975586,116.967857 454.863800,113.973434 451.621918,111.127205 
	C433.403717,95.132530 408.610718,93.285782 388.188324,106.133347 
	C374.151245,114.963997 364.817627,127.670212 357.333740,141.977036 
	C354.276337,138.895737 351.453979,136.040756 348.631653,133.185760 
	C352.749451,128.288895 356.249603,122.634514 361.121307,118.662224 
	C369.696777,111.669868 378.830750,105.254669 388.239838,99.418365 
	C401.586334,91.139763 416.223175,90.106171 431.333466,93.712830 
	C442.675293,96.420006 451.844177,102.801521 460.659607,110.938286 
	C465.143463,107.733009 469.520508,104.102997 474.352234,101.240479 
	C491.510071,91.075401 509.572906,88.512009 528.393555,96.158859 
	C541.823792,101.615562 551.969360,111.151978 560.503784,122.704941 
	C562.009766,124.743591 565.124023,125.594154 568.124268,127.303452 
	C576.018005,129.529526 579.595764,135.178452 583.069214,141.214462 
	C597.203796,165.777191 611.518982,190.235977 625.922058,215.082642 
	C626.831421,216.249405 627.586304,217.066620 628.720459,218.294464 
	C628.720459,194.317245 628.697205,171.266327 628.729065,148.215485 
	C628.748596,134.098495 631.991028,129.318176 644.839661,124.169357 
	C645.712280,124.115158 646.584961,124.060951 648.142456,124.301552 
	C658.434631,126.606628 664.232056,132.428177 665.111511,142.211716 
	C666.107361,153.290268 666.545654,164.423065 667.053711,175.540176 
	C667.600281,187.501770 667.993408,199.471054 668.369995,211.439590 
	C669.023682,232.217163 669.721191,252.994659 670.125427,273.777527 
	C670.194763,277.339203 669.167480,281.003784 668.178528,284.487946 
	C665.906921,292.491272 659.294250,295.526154 652.164185,297.829163 
M636.235291,140.509201 
	C636.478027,148.625031 636.720764,156.740875 637.453186,165.383148 
	C638.458252,165.133804 640.061157,165.169861 640.344604,164.575989 
	C640.945557,163.317154 640.933838,161.735474 641.041382,160.276443 
	C641.684326,151.562012 638.066589,142.267715 644.616211,134.316559 
	C644.917358,133.950989 644.337219,132.267014 643.749329,131.932785 
	C643.192444,131.616226 641.666138,131.986740 641.292053,132.543152 
	C639.671692,134.952805 638.317200,137.541183 636.235291,140.509201 
z"/>
<path fill="#6A5ACD" opacity="1.000000" stroke="none" 
	d="
M198.998016,302.840973 
	C188.037460,306.017487 176.957153,305.696228 165.207458,303.607635 
	C150.733627,299.647339 138.309952,293.547058 127.690956,283.670258 
	C114.943146,271.813446 113.892319,248.347214 135.903244,241.166489 
	C138.768784,241.115509 141.634308,241.064545 145.159546,241.310364 
	C149.953735,243.927444 154.403854,245.830597 158.149399,248.664871 
	C163.903198,253.018784 169.289536,257.748871 177.200317,256.968750 
	C178.046829,256.966003 178.893341,256.963287 180.379120,257.277557 
	C188.338730,257.607544 194.759506,255.695282 199.361694,249.463486 
	C201.685379,246.316986 201.547485,243.310120 198.501205,241.190781 
	C194.583069,238.464844 190.371384,236.063812 186.043030,234.043701 
	C175.362747,229.059052 164.074402,225.196671 153.876617,219.395706 
	C131.513443,206.674423 119.594879,182.479736 123.452461,160.025330 
	C127.935715,133.929016 144.580429,117.739899 171.976944,112.829056 
	C180.452469,112.885986 188.927994,112.942924 198.070984,113.304497 
	C199.059402,113.696091 199.378891,113.788795 199.701477,113.869179 
	C215.794250,117.879585 230.889175,123.642090 241.144806,137.756119 
	C250.685471,150.886215 249.614380,162.327438 237.571777,173.021362 
	C236.487503,173.653793 235.744141,174.287781 234.693451,175.050415 
	C233.589233,175.500793 232.792343,175.822540 231.535065,176.084167 
	C228.580170,175.950455 226.085678,175.876831 223.336502,175.612595 
	C216.889175,174.342133 212.501907,170.477554 208.231781,166.199753 
	C203.522690,161.482193 198.365997,157.328842 190.539520,158.079453 
	C187.066681,158.053436 184.043488,158.083939 180.608383,158.052429 
	C175.427704,157.684769 171.424149,159.323395 169.548950,163.775909 
	C167.592606,168.421173 169.547806,172.593445 172.838867,176.039612 
	C174.198425,177.463242 175.810501,178.816010 177.567932,179.657776 
	C183.101669,182.308228 188.803864,184.605164 194.358032,187.215225 
	C203.811523,191.657684 213.762939,195.359421 222.490250,200.955200 
	C236.345230,209.838806 245.538422,222.565125 247.072205,239.533173 
	C249.439148,265.718658 237.035797,283.806335 214.897308,296.065491 
	C209.884140,298.841553 204.312561,300.609161 198.998016,302.840973 
M188.742157,266.008118 
	C194.046356,263.540741 199.410690,261.188080 204.586411,258.475586 
	C205.316849,258.092773 205.126907,255.953781 205.362976,254.627640 
	C204.234650,254.731949 203.106339,254.836243 201.283798,255.066910 
	C196.695053,257.190521 192.058594,259.219940 187.551193,261.504028 
	C186.426392,262.074005 185.717743,263.465179 184.817810,264.478943 
	C185.852219,264.970032 186.886612,265.461151 188.742157,266.008118 
M129.134155,253.181412 
	C123.384354,260.772705 124.239189,272.008881 131.560486,279.533447 
	C134.917496,280.451202 135.993530,278.262390 134.614624,276.110809 
	C130.253708,269.306335 129.981430,262.567169 132.950745,255.215302 
	C134.026199,252.552551 132.874146,251.898575 129.134155,253.181412 
M133.424103,165.654358 
	C137.013275,166.967926 137.393875,164.195465 137.721161,161.980255 
	C139.578232,149.410614 146.386017,140.035721 156.313599,132.605820 
	C157.771408,131.514786 159.375641,130.560776 160.614197,129.259720 
	C161.248749,128.593155 161.224243,127.299202 161.497604,126.288773 
	C160.284622,126.183723 159.071640,126.078674 157.152954,126.002998 
	C142.979630,133.483337 134.811386,145.310684 132.059753,160.956161 
	C131.836044,162.228104 132.659760,163.684265 133.424103,165.654358 
z"/>
<path fill="#6A5ACD" opacity="1.000000" stroke="none" 
	d="
M235.000763,174.921783 
	C235.744141,174.287781 236.487503,173.653793 237.963959,173.046753 
	C244.987701,171.945984 250.852066,165.244675 250.772202,157.660034 
	C250.716705,152.391205 248.923508,147.140686 247.890930,141.502975 
	C248.555557,136.858200 250.038086,133.178238 254.216797,131.005936 
	C255.085312,130.554443 255.347824,128.937241 255.889618,127.857277 
	C254.611649,127.586823 253.333694,127.316360 251.706207,127.086258 
	C248.549103,129.695282 245.741501,132.263931 242.675201,135.069275 
	C242.011917,134.171249 240.958923,132.745575 240.024017,130.979965 
	C242.866943,125.670067 247.262314,122.888954 252.498535,121.209564 
	C255.724670,121.145119 258.950806,121.080681 262.771637,121.374580 
	C271.882355,124.967361 276.436523,131.352844 276.932861,140.225601 
	C277.831024,156.281860 278.354584,172.360596 278.896973,188.434586 
	C279.164215,196.353622 280.929962,197.635803 288.861084,195.096786 
	C293.950928,194.851547 299.040771,194.606308 304.754974,194.567932 
	C314.464478,194.951340 315.355438,194.150482 315.678864,185.209564 
	C316.080475,174.107086 316.318237,162.997482 316.838501,151.900894 
	C317.306274,141.924606 322.416595,135.490097 331.776215,132.490677 
	C332.846222,132.147781 333.855225,131.614426 334.892517,131.169373 
	C335.734192,131.120667 336.575867,131.071945 338.059570,131.347046 
	C352.028137,135.905167 356.828003,142.179108 356.917908,156.581024 
	C357.150513,193.837509 357.282928,231.095291 357.260468,268.352417 
	C357.250702,284.569061 352.469421,290.867065 337.422089,295.786499 
	C336.809143,295.851624 336.196167,295.916779 334.880066,295.682434 
	C326.864319,293.978882 321.033875,290.190063 318.308899,283.255676 
	C316.475494,278.590179 315.451569,273.370911 315.243744,268.350616 
	C314.791840,257.436157 315.074982,246.490433 315.100616,235.557587 
	C315.107574,232.593231 314.656769,230.364517 310.876221,232.055969 
	C302.234497,232.376785 293.592804,232.697586 284.076965,233.012802 
	C279.143738,232.572083 279.117554,235.315842 279.122620,238.137573 
	C279.149719,253.228546 279.392334,268.323944 279.108063,283.409302 
	C278.846771,297.273132 273.286102,304.140839 260.337982,307.801270 
	C258.527283,307.858368 256.716614,307.915466 254.285934,307.609711 
	C244.339188,304.146912 239.514526,297.385925 237.987549,287.951141 
	C237.672028,286.001587 237.391998,284.046295 237.193222,281.771759 
	C254.840866,263.185974 257.530884,229.294601 235.456345,207.972946 
	C235.919342,197.477737 236.047607,187.250854 236.081284,177.023666 
	C236.083588,176.324234 235.377441,175.622452 235.000763,174.921783 
M330.288788,138.932602 
	C322.766937,144.055634 319.112244,158.718948 323.261566,169.490738 
	C327.384979,170.342072 326.921692,167.327682 327.002441,164.936127 
	C327.291718,156.373123 326.467499,147.509201 334.219299,141.173874 
	C334.679810,140.797516 334.367676,139.475830 334.415100,138.594040 
	C333.274353,138.684433 332.133575,138.774826 330.288788,138.932602 
z"/>
<path fill="#05F8FD" opacity="1.000000" stroke="none" 
	d="
M171.773163,112.491074 
	C144.580429,117.739899 127.935715,133.929016 123.452461,160.025330 
	C119.594879,182.479736 131.513443,206.674423 153.876617,219.395706 
	C164.074402,225.196671 175.362747,229.059052 186.043030,234.043701 
	C190.371384,236.063812 194.583069,238.464844 198.501205,241.190781 
	C201.547485,243.310120 201.685379,246.316986 199.361694,249.463486 
	C194.759506,255.695282 188.338730,257.607544 180.791931,257.372192 
	C185.094742,254.875931 190.083191,253.199677 194.030075,250.167618 
	C198.372360,246.831818 198.213699,243.736038 193.522385,241.065399 
	C186.149887,236.868408 178.392548,233.213364 170.491501,230.109436 
	C157.828461,225.134811 145.755096,219.075974 136.131775,209.467041 
	C112.816841,186.187042 112.175316,147.361588 138.398102,125.215355 
	C147.860916,117.223625 159.021561,112.721436 171.773163,112.491074 
z"/>
<path fill="#F506FC" opacity="1.000000" stroke="none" 
	d="
M652.570557,297.897583 
	C659.294250,295.526154 665.906921,292.491272 668.178528,284.487946 
	C669.167480,281.003784 670.194763,277.339203 670.125427,273.777527 
	C669.721191,252.994659 669.023682,232.217163 668.369995,211.439590 
	C667.993408,199.471054 667.600281,187.501770 667.053711,175.540176 
	C666.545654,164.423065 666.107361,153.290268 665.111511,142.211716 
	C664.232056,132.428177 658.434631,126.606628 648.571533,124.394432 
	C660.132690,122.905922 668.155334,132.490067 668.988953,141.974243 
	C669.459717,147.329865 669.690369,152.706604 670.025635,158.963898 
	C670.064148,161.901199 670.106079,163.948395 670.148010,165.995605 
	C671.318359,196.671005 672.496582,227.346130 673.648621,258.022217 
	C673.785767,261.672791 673.780518,265.328735 673.871704,269.873322 
	C673.992615,272.511505 674.083069,274.258545 674.173584,276.005585 
	C672.897949,284.232513 670.590637,291.975525 662.283264,295.817902 
	C659.455017,297.126007 656.094360,297.283051 652.570557,297.897583 
z"/>
<path fill="#F50FFB" opacity="1.000000" stroke="none" 
	d="
M337.806610,295.838928 
	C352.469421,290.867065 357.250702,284.569061 357.260468,268.352417 
	C357.282928,231.095291 357.150513,193.837509 356.917908,156.581024 
	C356.828003,142.179108 352.028137,135.905167 338.474487,131.429581 
	C341.471466,131.800308 344.695587,132.412308 348.275665,133.105042 
	C351.453979,136.040756 354.276337,138.895737 357.431000,142.304825 
	C358.395752,144.548355 359.028168,146.237762 359.712433,148.388992 
	C360.166840,186.081009 360.564209,223.311295 360.984100,260.541290 
	C361.010254,262.858551 361.212646,265.173798 361.207031,267.886597 
	C360.906372,270.536621 360.731720,272.790070 360.557068,275.043488 
	C358.912933,283.806763 354.772522,290.725708 346.055328,294.696472 
	C343.303955,295.287628 340.747528,295.589478 337.806610,295.838928 
z"/>
<path fill="#F605FC" opacity="1.000000" stroke="none" 
	d="
M235.099060,208.241211 
	C257.530884,229.294601 254.840866,263.185974 236.894318,281.904388 
	C235.608276,283.574829 234.718735,284.790741 233.829178,286.006683 
	C225.292038,293.926849 215.364624,299.343536 204.147095,302.394440 
	C202.757919,302.772308 201.274002,302.801819 199.416000,302.916870 
	C204.312561,300.609161 209.884140,298.841553 214.897308,296.065491 
	C237.035797,283.806335 249.439148,265.718658 247.072205,239.533173 
	C245.538422,222.565125 236.345230,209.838806 222.490250,200.955200 
	C213.762939,195.359421 203.811523,191.657684 194.358032,187.215225 
	C188.803864,184.605164 183.101669,182.308228 177.567932,179.657776 
	C175.810501,178.816010 174.198425,177.463242 172.838867,176.039612 
	C169.547806,172.593445 167.592606,168.421173 169.548950,163.775909 
	C171.424149,159.323395 175.427704,157.684769 180.459839,158.381561 
	C172.888885,161.070267 171.058716,165.519516 174.918472,172.603073 
	C178.505997,179.186996 185.173309,181.409470 191.409317,183.893127 
	C205.455887,189.487595 219.836945,194.313889 231.958160,204.301300 
	C233.085526,205.821426 234.092300,207.031311 235.099060,208.241211 
z"/>
<path fill="#F903FD" opacity="1.000000" stroke="none" 
	d="
M753.251587,302.926453 
	C755.853516,301.608582 758.903870,300.386414 761.925537,299.096802 
	C774.987366,293.522156 785.332581,284.585724 793.459106,273.083099 
	C801.640686,261.502655 809.149475,249.594009 811.189697,235.074127 
	C813.855652,216.101471 805.163208,201.671707 787.109436,195.569611 
	C786.167419,195.251205 785.229553,194.920319 784.135254,194.262451 
	C798.380920,194.593491 813.037170,206.371017 815.240906,222.169739 
	C817.164612,235.960632 812.837952,247.899551 806.727844,259.281006 
	C801.106445,269.752228 794.233154,279.672546 784.979065,287.489258 
	C775.847595,295.202301 765.889038,301.402283 753.251587,302.926453 
z"/>
<path fill="#F904FD" opacity="1.000000" stroke="none" 
	d="
M732.072815,258.676147 
	C725.080139,260.185303 720.466248,255.684418 716.264221,251.125992 
	C707.721924,241.859268 704.605652,230.186264 704.437500,218.077423 
	C704.155029,197.747574 710.023926,179.397141 725.323303,165.079544 
	C730.498291,160.236618 736.504272,156.724457 744.498352,157.222855 
	C744.975159,157.413315 744.999146,157.838669 744.999146,157.838669 
	C735.359009,158.977631 728.449036,164.662598 723.092712,172.070572 
	C714.795776,183.545532 709.738586,196.262634 708.859619,210.715286 
	C707.890381,226.652634 710.885132,241.064926 722.405701,252.693680 
	C724.910583,255.222076 728.677368,256.500275 732.072815,258.676147 
z"/>
<path fill="#04F9FD" opacity="1.000000" stroke="none" 
	d="
M644.426086,124.125450 
	C631.991028,129.318176 628.748596,134.098495 628.729065,148.215485 
	C628.697205,171.266327 628.720459,194.317245 628.720459,218.294464 
	C627.586304,217.066620 626.831421,216.249405 625.988220,214.680847 
	C625.543335,211.284576 625.186768,208.639633 624.830200,205.994705 
	C624.884155,185.258789 624.930481,164.522827 624.995178,143.786957 
	C625.029602,132.760208 634.504211,122.755913 644.426086,124.125450 
z"/>
<path fill="#F904FD" opacity="1.000000" stroke="none" 
	d="
M624.516113,205.858124 
	C625.186768,208.639633 625.543335,211.284576 625.833740,214.331299 
	C611.518982,190.235977 597.203796,165.777191 583.069214,141.214462 
	C579.595764,135.178452 576.018005,129.529526 568.518616,127.401321 
	C578.581299,126.260864 583.328613,133.510880 586.869324,141.018433 
	C597.537903,163.639450 610.969666,184.611099 624.516113,205.858124 
z"/>
<path fill="#F605FC" opacity="1.000000" stroke="none" 
	d="
M260.743835,307.841675 
	C273.286102,304.140839 278.846771,297.273132 279.108063,283.409302 
	C279.392334,268.323944 279.149719,253.228546 279.122620,238.137573 
	C279.117554,235.315842 279.143738,232.572083 283.611816,233.060806 
	C283.684357,234.839981 283.064148,236.564178 283.055786,238.291336 
	C282.980103,253.917770 283.372833,269.556030 282.884338,285.167542 
	C282.558990,295.564453 277.917175,304.690338 267.002319,307.472992 
	C265.137878,307.948334 263.104858,307.762482 260.743835,307.841675 
z"/>
<path fill="#05F8FD" opacity="1.000000" stroke="none" 
	d="
M584.039612,228.017334 
	C584.039612,226.870102 584.039612,225.722870 584.039612,223.878448 
	C585.108826,224.745514 585.864685,225.080139 586.182251,225.656357 
	C597.376770,245.962616 613.971313,262.170288 627.804871,280.470520 
	C630.802429,284.436035 633.916565,288.491913 637.705872,291.624603 
	C640.800659,294.183105 644.982117,295.427216 648.875122,297.550049 
	C640.071289,298.068756 633.700745,293.094147 628.381653,286.743439 
	C618.267395,274.667542 608.407349,262.375702 598.599365,250.048065 
	C595.095398,245.643951 592.047791,240.876785 588.399475,235.782547 
	C586.684570,232.865631 585.362061,230.441483 584.039612,228.017334 
z"/>
<path fill="#F903FD" opacity="1.000000" stroke="none" 
	d="
M288.424561,195.050278 
	C280.929962,197.635803 279.164215,196.353622 278.896973,188.434586 
	C278.354584,172.360596 277.831024,156.281860 276.932861,140.225601 
	C276.436523,131.352844 271.882355,124.967361 263.187256,121.446045 
	C269.931824,120.838890 276.991547,125.509285 278.880615,132.926605 
	C280.582581,139.609161 281.208252,146.594757 281.932434,153.486206 
	C282.345886,157.421143 282.007294,161.435120 282.007294,165.413498 
	C282.007294,175.098373 282.007263,184.783234 282.007263,195.003769 
	C284.823273,195.003769 286.405670,195.003769 288.424561,195.050278 
z"/>
<path fill="#05F8FD" opacity="1.000000" stroke="none" 
	d="
M135.488022,241.120132 
	C113.892319,248.347214 114.943146,271.813446 127.690956,283.670258 
	C138.309952,293.547058 150.733627,299.647339 164.781433,303.537659 
	C153.228104,303.005432 142.894745,298.352325 133.355026,291.807922 
	C125.687256,286.547699 118.458153,280.918762 115.640007,271.271240 
	C111.651718,257.617920 117.763390,246.284317 130.176620,241.390106 
	C131.625092,240.819031 133.432037,241.157150 135.488022,241.120132 
z"/>
<path fill="#FD02FE" opacity="1.000000" stroke="none" 
	d="
M584.041748,228.484589 
	C585.362061,230.441483 586.684570,232.865631 588.084961,235.648834 
	C588.109436,249.313538 588.307739,262.626892 587.899902,275.921661 
	C587.685425,282.910828 586.694214,290.286407 580.490906,294.722778 
	C576.877136,297.307190 572.096680,298.260284 567.421814,299.897949 
	C579.809326,295.866821 584.209229,286.547607 584.018799,273.884369 
	C583.793640,258.910370 584.015747,243.929642 584.041748,228.484589 
z"/>
<path fill="#F407FC" opacity="1.000000" stroke="none" 
	d="
M247.906662,141.881989 
	C248.923508,147.140686 250.716705,152.391205 250.772202,157.660034 
	C250.852066,165.244675 244.987701,171.945984 238.304871,173.048309 
	C249.614380,162.327438 250.685471,150.886215 241.144806,137.756119 
	C230.889175,123.642090 215.794250,117.879585 199.701477,113.869179 
	C199.378891,113.788795 199.059402,113.696091 198.465073,113.393707 
	C204.136017,114.437202 210.388474,114.925514 215.947418,117.148270 
	C223.043823,119.985794 229.580246,124.223839 236.724823,128.332520 
	C238.029709,129.644485 238.967819,130.482193 239.905914,131.319885 
	C240.958923,132.745575 242.011917,134.171249 242.675201,135.069275 
	C245.741501,132.263931 248.549103,129.695282 251.744812,127.458511 
	C250.955322,129.221313 249.922897,130.809799 248.572830,132.053467 
	C244.576218,135.735168 244.389786,137.623337 247.906662,141.881989 
z"/>
<path fill="#04F8FD" opacity="1.000000" stroke="none" 
	d="
M334.480164,131.105911 
	C333.855225,131.614426 332.846222,132.147781 331.776215,132.490677 
	C322.416595,135.490097 317.306274,141.924606 316.838501,151.900894 
	C316.318237,162.997482 316.080475,174.107086 315.678864,185.209564 
	C315.355438,194.150482 314.464478,194.951340 305.130341,194.463745 
	C309.113403,194.268112 311.256958,193.085938 311.152649,187.976532 
	C310.944092,177.760544 311.273285,167.493088 312.136017,157.310898 
	C312.654724,151.188889 312.627686,144.817825 316.938995,139.373749 
	C321.457458,133.668060 327.212067,131.457794 334.480164,131.105911 
z"/>
<path fill="#02FCFE" opacity="1.000000" stroke="none" 
	d="
M310.930206,232.517365 
	C314.656769,230.364517 315.107574,232.593231 315.100616,235.557587 
	C315.074982,246.490433 314.791840,257.436157 315.243744,268.350616 
	C315.451569,273.370911 316.475494,278.590179 318.308899,283.255676 
	C321.033875,290.190063 326.864319,293.978882 334.423126,295.600220 
	C321.120392,296.261475 313.231903,287.798004 312.226746,276.519379 
	C310.940216,262.083588 311.321564,247.499161 310.930206,232.517365 
z"/>
<path fill="#F904FD" opacity="1.000000" stroke="none" 
	d="
M784.685059,174.852386 
	C802.489746,169.694260 806.038391,151.191864 793.318481,137.743835 
	C783.577393,127.445122 772.022583,120.455963 758.205322,116.456635 
	C767.959656,116.333229 776.465820,120.866928 784.240601,126.205826 
	C792.725403,132.032242 800.836609,138.638123 804.118958,149.270462 
	C807.887756,161.478607 799.132080,175.492691 784.685059,174.852386 
z"/>
<path fill="#04F8FD" opacity="1.000000" stroke="none" 
	d="
M670.434082,165.824081 
	C670.106079,163.948395 670.064148,161.901199 670.097961,159.424286 
	C681.965149,139.519577 697.618530,124.655373 719.792297,117.682129 
	C722.539612,116.818146 725.475159,116.552795 728.765625,116.078186 
	C716.265503,120.089745 704.316772,125.815056 694.155457,134.998199 
	C684.431274,143.786270 676.965088,154.237076 670.434082,165.824081 
z"/>
<path fill="#04F9FD" opacity="1.000000" stroke="none" 
	d="
M736.749878,193.476089 
	C726.512634,196.039642 720.093201,203.505981 720.056274,213.458603 
	C720.019836,223.272781 726.150024,230.368240 737.461060,233.291779 
	C737.885254,233.470444 737.935669,233.828659 737.935669,233.828659 
	C726.883606,235.003098 715.936401,225.816681 716.001953,213.891891 
	C716.068176,201.841248 724.398682,192.713837 736.749878,193.476089 
z"/>
<path fill="#04F8FD" opacity="1.000000" stroke="none" 
	d="
M674.482666,276.139343 
	C674.083069,274.258545 673.992615,272.511505 673.957458,270.325012 
	C679.069824,275.738525 683.790527,281.930084 689.262878,287.364899 
	C697.420166,295.466248 707.707336,300.047668 718.822815,303.531921 
	C710.457214,303.677094 702.597961,300.476440 696.032043,295.755035 
	C688.287048,290.185730 681.815430,282.845520 674.482666,276.139343 
z"/>
<path fill="#04F8FD" opacity="1.000000" stroke="none" 
	d="
M762.950195,234.440521 
	C764.187500,234.070633 765.457947,234.070633 767.923767,234.070633 
	C766.266357,236.919952 765.207336,239.060669 763.860168,241.001419 
	C757.920532,249.558212 750.101624,255.719666 740.153381,258.974731 
	C738.488281,259.519592 736.615601,259.430206 734.628479,259.376038 
	C746.610107,255.430573 755.580688,247.643890 762.350647,237.091888 
	C762.757751,236.457291 762.781372,235.576599 762.950195,234.440521 
z"/>
<path fill="#06F6FD" opacity="1.000000" stroke="none" 
	d="
M233.901154,286.421204 
	C234.718735,284.790741 235.608276,283.574829 236.796722,282.226257 
	C237.391998,284.046295 237.672028,286.001587 237.987549,287.951141 
	C239.514526,297.385925 244.339188,304.146912 253.837585,307.541870 
	C243.681396,307.872528 234.549789,299.408508 233.901154,286.421204 
z"/>
<path fill="#04F9FD" opacity="1.000000" stroke="none" 
	d="
M745.386597,157.914719 
	C744.999146,157.838669 744.975159,157.413315 744.918884,157.207855 
	C753.004761,156.256165 758.420593,161.218857 764.082642,165.926407 
	C767.732361,168.960876 771.807739,171.483383 775.847046,174.536606 
	C770.121338,175.240997 765.759460,172.174408 761.894958,168.347610 
	C757.231201,163.729416 752.747437,158.959778 745.386597,157.914719 
z"/>
<path fill="#F605FC" opacity="1.000000" stroke="none" 
	d="
M177.006165,256.636200 
	C169.289536,257.748871 163.903198,253.018784 158.149399,248.664871 
	C154.403854,245.830597 149.953735,243.927444 145.571060,241.400482 
	C152.594528,239.910889 157.436020,244.479233 162.792206,248.155792 
	C167.235992,251.206039 172.121933,253.612167 177.006165,256.636200 
z"/>
<path fill="#08F4FD" opacity="1.000000" stroke="none" 
	d="
M240.024017,130.979965 
	C238.967819,130.482193 238.029709,129.644485 237.045441,128.482788 
	C241.253494,124.446793 245.039169,119.749207 252.112961,121.183380 
	C247.262314,122.888954 242.866943,125.670067 240.024017,130.979965 
z"/>
<path fill="#5879D9" opacity="1.000000" stroke="none" 
	d="
M738.401978,233.912476 
	C737.935669,233.828659 737.885254,233.470444 737.836426,233.296524 
	C745.639282,233.190598 753.491028,233.258606 761.662964,233.587952 
	C754.278137,233.898285 746.573242,233.947281 738.401978,233.912476 
z"/>
<path fill="#F903FD" opacity="1.000000" stroke="none" 
	d="
M783.894348,193.609283 
	C782.248047,193.891434 780.432251,193.808762 778.357056,193.445862 
	C779.973328,193.191910 781.849121,193.218201 783.894348,193.609283 
z"/>
<path fill="#0CEFFC" opacity="1.000000" stroke="none" 
	d="
M709.960266,134.012665 
	C711.211670,134.213318 712.463013,134.413971 713.714417,134.614609 
	C713.321350,135.755707 713.262756,137.279129 712.474670,137.968674 
	C709.729858,140.370117 706.652893,142.387253 703.844849,144.721985 
	C692.401123,154.236847 685.039551,166.493668 679.957520,180.311462 
	C679.199890,182.371384 678.994629,185.636932 675.152283,183.897568 
	C675.703552,181.894440 676.401672,180.567581 676.895569,179.168625 
	C682.682434,162.777863 692.711975,149.545883 706.439514,138.966263 
	C707.974182,137.783539 708.803711,135.685974 709.960266,134.012665 
z"/>
<path fill="#EE0EFD" opacity="1.000000" stroke="none" 
	d="
M709.615540,134.051361 
	C708.803711,135.685974 707.974182,137.783539 706.439514,138.966263 
	C692.711975,149.545883 682.682434,162.777863 676.895569,179.168625 
	C676.401672,180.567581 675.703552,181.894440 674.961060,183.591568 
	C674.635193,182.552719 673.933777,180.998993 674.338867,179.828110 
	C680.938416,160.753464 691.533325,144.679993 709.615540,134.051361 
z"/>
<path fill="#0BF2FD" opacity="1.000000" stroke="none" 
	d="
M767.813843,246.177902 
	C768.925598,246.179657 770.037354,246.181412 771.149109,246.183167 
	C770.759277,247.679001 770.853821,249.697235 769.898438,250.583038 
	C764.953918,255.167084 759.842163,259.589233 754.559021,263.778107 
	C753.004639,265.010559 750.699707,265.296448 748.450439,265.653473 
	C751.169617,263.165405 754.511963,261.381195 757.106384,258.834961 
	C761.042053,254.972107 767.250183,252.909973 767.813843,246.177902 
z"/>
<path fill="#F408FD" opacity="1.000000" stroke="none" 
	d="
M767.536438,246.327133 
	C767.250183,252.909973 761.042053,254.972107 757.106384,258.834961 
	C754.511963,261.381195 751.169617,263.165405 748.058838,265.619080 
	C747.014771,265.539642 746.073975,265.131866 745.133240,264.724121 
	C745.764404,263.852936 746.238159,262.781494 747.051514,262.142090 
	C753.751709,256.874817 760.514954,251.687759 767.536438,246.327133 
z"/>
<path fill="#F705FD" opacity="1.000000" stroke="none" 
	d="
M726.621948,212.899445 
	C725.417419,206.834213 732.507324,198.939896 738.309631,200.075638 
	C740.865295,200.575912 740.708008,201.836700 737.796997,203.070068 
	C732.363831,205.098282 728.339783,207.763474 726.621948,212.899445 
z"/>
<path fill="#10ECFD" opacity="1.000000" stroke="none" 
	d="
M726.837585,213.193390 
	C728.339783,207.763474 732.363831,205.098282 737.405212,203.187546 
	C737.261230,204.140579 736.930237,205.201218 736.255676,205.953918 
	C734.526855,207.882874 732.739929,209.783951 730.786743,211.477722 
	C729.744873,212.381256 728.310486,212.832153 726.837585,213.193390 
z"/>
<path fill="#030303" opacity="1.000000" stroke="none" 
	d="
M359.660553,147.927185 
	C359.028168,146.237762 358.395752,144.548355 357.666077,142.531143 
	C364.817627,127.670212 374.151245,114.963997 388.188324,106.133347 
	C408.610718,93.285782 433.403717,95.132530 451.621918,111.127205 
	C454.863800,113.973434 457.975586,116.967857 460.886108,119.652748 
	C466.935364,114.893333 472.501373,109.571655 478.918549,105.638855 
	C499.624542,92.949036 524.039246,95.595253 542.226013,111.725296 
	C560.447449,127.886101 570.303955,148.717484 575.245850,171.976517 
	C582.899963,208.001221 579.594910,242.867935 561.859558,275.657257 
	C554.349121,289.542542 544.075745,301.075592 529.760681,308.295380 
	C507.763367,319.389709 483.517334,314.355591 465.205658,295.221680 
	C464.060272,294.024811 462.935242,292.808472 461.507446,291.289185 
	C460.200745,292.519684 459.002716,293.582458 457.877289,294.717255 
	C431.395691,321.419586 396.997131,320.415558 372.374756,291.964996 
	C368.051056,286.969025 364.723663,281.110748 360.746613,275.347107 
	C360.731720,272.790070 360.906372,270.536621 361.443848,268.219055 
	C367.003540,278.915009 373.744965,288.550232 382.913513,296.296692 
	C396.267548,307.579437 411.357147,312.964996 428.715302,307.874878 
	C447.839355,302.266907 459.991028,288.524750 469.044891,271.546753 
	C469.217590,271.222900 468.915802,270.645996 468.737854,269.630524 
	C456.209442,271.913330 446.197998,267.311798 438.146790,257.944153 
	C430.367920,248.893387 426.223206,238.210892 423.983887,226.485825 
	C436.709106,220.826096 449.173401,215.282394 462.185333,209.495132 
	C449.098053,203.017685 436.639832,196.851608 422.957550,190.079666 
	C427.068726,181.494354 430.181213,172.811188 435.078796,165.290558 
	C442.019562,154.632553 451.773926,147.603027 465.528412,149.057922 
	C468.360382,149.357483 471.127869,150.266541 474.355774,150.991379 
	C468.115234,136.145279 460.023193,123.245163 447.677338,113.590530 
	C431.834930,101.201477 414.434723,98.057198 395.862213,106.950127 
	C378.098480,115.455811 367.582123,130.602753 359.660553,147.927185 
M514.280945,189.494598 
	C516.517212,183.437454 518.308594,177.166489 521.093689,171.373199 
	C525.291504,162.641479 531.641541,155.686249 540.573547,151.396591 
	C548.208984,147.729660 555.940491,148.306259 563.852844,151.183121 
	C560.182068,138.303940 547.755432,121.236671 536.333801,112.540459 
	C510.556763,92.914345 481.229767,103.135246 465.732422,122.622101 
	C498.634583,178.358841 498.900330,233.421982 465.452332,289.228546 
	C479.474884,304.403931 496.379028,314.157776 518.503906,307.772827 
	C538.184937,302.093140 550.427063,287.777313 560.032166,269.729797 
	C535.155579,270.777679 515.506897,251.721664 514.244019,226.308945 
	C526.612000,220.807129 539.048828,215.274673 552.035400,209.497665 
	C547.947205,207.460968 544.520081,205.788727 541.124329,204.055054 
	C532.139771,199.467911 523.168884,194.854172 514.280945,189.494598 
z"/>
<path fill="#16E6FC" opacity="1.000000" stroke="none" 
	d="
M636.865967,140.064590 
	C638.317200,137.541183 639.671692,134.952805 641.292053,132.543152 
	C641.666138,131.986740 643.192444,131.616226 643.749329,131.932785 
	C644.337219,132.267014 644.917358,133.950989 644.616211,134.316559 
	C638.066589,142.267715 641.684326,151.562012 641.041382,160.276443 
	C640.933838,161.735474 640.945557,163.317154 640.344604,164.575989 
	C640.061157,165.169861 638.458252,165.133804 637.384033,164.768494 
	C637.165283,156.124084 637.015625,148.094345 636.865967,140.064590 
z"/>
<path fill="#E915FE" opacity="1.000000" stroke="none" 
	d="
M636.550659,140.286896 
	C637.015625,148.094345 637.165283,156.124084 637.139160,164.505280 
	C636.720764,156.740875 636.478027,148.625031 636.550659,140.286896 
z"/>
<path fill="#ffffff" opacity="1.000000" stroke="none" 
	d="
M231.837570,203.991058 
	C219.836945,194.313889 205.455887,189.487595 191.409317,183.893127 
	C185.173309,181.409470 178.505997,179.186996 174.918472,172.603073 
	C171.058716,165.519516 172.888885,161.070267 180.871765,158.443573 
	C184.043488,158.083939 187.066681,158.053436 190.695526,158.406830 
	C197.843613,160.190765 202.281342,164.688324 206.718170,169.214600 
	C211.342331,173.931992 216.694214,176.867188 223.591202,175.803223 
	C226.085678,175.876831 228.580170,175.950455 231.536179,176.540268 
	C231.944321,186.034668 231.890945,195.012863 231.837570,203.991058 
z"/>
<path fill="#0CF1FD" opacity="1.000000" stroke="none" 
	d="
M157.858658,125.973633 
	C159.071640,126.078674 160.284622,126.183723 161.497604,126.288773 
	C161.224243,127.299202 161.248749,128.593155 160.614197,129.259720 
	C159.375641,130.560776 157.771408,131.514786 156.313599,132.605820 
	C146.386017,140.035721 139.578232,149.410614 137.721161,161.980255 
	C137.393875,164.195465 137.013275,166.967926 133.453156,165.049561 
	C135.627350,149.837097 143.183334,138.675034 155.062744,130.157547 
	C156.338715,129.242691 156.942871,127.390831 157.858658,125.973633 
z"/>
<path fill="#EE0EFD" opacity="1.000000" stroke="none" 
	d="
M157.505798,125.988319 
	C156.942871,127.390831 156.338715,129.242691 155.062744,130.157547 
	C143.183334,138.675034 135.627350,149.837097 133.239487,164.749786 
	C132.659760,163.684265 131.836044,162.228104 132.059753,160.956161 
	C134.811386,145.310684 142.979630,133.483337 157.505798,125.988319 
z"/>
<path fill="#02FDFF" opacity="1.000000" stroke="none" 
	d="
M231.958160,204.301300 
	C231.890945,195.012863 231.944321,186.034668 231.996582,176.600372 
	C232.792343,175.822540 233.589233,175.500793 234.693436,175.050415 
	C235.377441,175.622452 236.083588,176.324234 236.081284,177.023666 
	C236.047607,187.250854 235.919342,197.477737 235.456345,207.972946 
	C234.092300,207.031311 233.085526,205.821426 231.958160,204.301300 
z"/>
<path fill="#0CF0FD" opacity="1.000000" stroke="none" 
	d="
M129.786514,252.963928 
	C132.874146,251.898575 134.026199,252.552551 132.950745,255.215302 
	C129.981430,262.567169 130.253708,269.306335 134.614624,276.110809 
	C135.993530,278.262390 134.917496,280.451202 131.520111,279.008240 
	C130.906631,276.862457 130.168701,275.279022 129.793488,273.613861 
	C128.914642,269.713531 127.697289,265.786377 127.602737,261.846405 
	C127.532127,258.904755 129.002396,255.926102 129.786514,252.963928 
z"/>
<path fill="#04F9FD" opacity="1.000000" stroke="none" 
	d="
M223.336502,175.612595 
	C216.694214,176.867188 211.342331,173.931992 206.718170,169.214600 
	C202.281342,164.688324 197.843613,160.190765 191.145203,158.463333 
	C198.365997,157.328842 203.522690,161.482193 208.231781,166.199753 
	C212.501907,170.477554 216.889175,174.342133 223.336502,175.612595 
z"/>
<path fill="#08F4FD" opacity="1.000000" stroke="none" 
	d="
M201.977997,254.940536 
	C203.106339,254.836243 204.234650,254.731949 205.362976,254.627655 
	C205.126907,255.953781 205.316849,258.092773 204.586411,258.475586 
	C199.410690,261.188080 194.046356,263.540741 188.445877,265.646790 
	C190.812195,263.855957 193.675598,262.697540 196.078613,260.917633 
	C198.301346,259.271240 200.031128,256.959351 201.977997,254.940536 
z"/>
<path fill="#E01BFC" opacity="1.000000" stroke="none" 
	d="
M129.460327,253.072662 
	C129.002396,255.926102 127.532127,258.904755 127.602737,261.846405 
	C127.697289,265.786377 128.914642,269.713531 129.793488,273.613861 
	C130.168701,275.279022 130.906631,276.862457 131.289413,278.745880 
	C124.239189,272.008881 123.384354,260.772705 129.460327,253.072662 
z"/>
<path fill="#F407FC" opacity="1.000000" stroke="none" 
	d="
M201.630890,255.003723 
	C200.031128,256.959351 198.301346,259.271240 196.078613,260.917633 
	C193.675598,262.697540 190.812195,263.855957 188.035309,265.618835 
	C186.886612,265.461151 185.852219,264.970032 184.817810,264.478943 
	C185.717743,263.465179 186.426392,262.074005 187.551193,261.504028 
	C192.058594,259.219940 196.695053,257.190521 201.630890,255.003723 
z"/>
<path fill="#10ECFD" opacity="1.000000" stroke="none" 
	d="
M330.992828,138.865219 
	C332.133575,138.774826 333.274353,138.684433 334.415100,138.594040 
	C334.367676,139.475830 334.679810,140.797516 334.219299,141.173874 
	C326.467499,147.509201 327.291718,156.373123 327.002441,164.936127 
	C326.921692,167.327682 327.384979,170.342072 323.149658,168.754425 
	C323.152740,167.196335 323.349304,166.376617 323.370117,165.552460 
	C323.600952,156.408249 323.146362,147.067139 331.075562,140.249954 
	C331.287872,140.067413 331.030914,139.339050 330.992828,138.865219 
z"/>
<path fill="#E517FD" opacity="1.000000" stroke="none" 
	d="
M330.640808,138.898911 
	C331.030914,139.339050 331.287872,140.067413 331.075562,140.249954 
	C323.146362,147.067139 323.600952,156.408249 323.370117,165.552460 
	C323.349304,166.376617 323.152740,167.196335 322.931427,168.448273 
	C319.112244,158.718948 322.766937,144.055634 330.640808,138.898911 
z"/>
<path fill="#11EBFD" opacity="1.000000" stroke="none" 
	d="
M247.890930,141.502975 
	C244.389786,137.623337 244.576218,135.735168 248.572830,132.053467 
	C249.922897,130.809799 250.955322,129.221313 252.094315,127.418159 
	C253.333694,127.316360 254.611649,127.586823 255.889618,127.857277 
	C255.347824,128.937241 255.085312,130.554443 254.216797,131.005936 
	C250.038086,133.178238 248.555557,136.858200 247.890930,141.502975 
z"/>
<path fill="#FEFEFE" opacity="1.000000" stroke="none" 
	d="
M359.712433,148.388992 
	C367.582123,130.602753 378.098480,115.455811 395.862213,106.950127 
	C414.434723,98.057198 431.834930,101.201477 447.677338,113.590530 
	C460.023193,123.245163 468.115234,136.145279 474.355774,150.991379 
	C471.127869,150.266541 468.360382,149.357483 465.528412,149.057922 
	C451.773926,147.603027 442.019562,154.632553 435.078796,165.290558 
	C430.181213,172.811188 427.068726,181.494354 422.957550,190.079666 
	C436.639832,196.851608 449.098053,203.017685 462.185333,209.495132 
	C449.173401,215.282394 436.709106,220.826096 423.983887,226.485825 
	C426.223206,238.210892 430.367920,248.893387 438.146790,257.944153 
	C446.197998,267.311798 456.209442,271.913330 468.737854,269.630524 
	C468.915802,270.645996 469.217590,271.222900 469.044891,271.546753 
	C459.991028,288.524750 447.839355,302.266907 428.715302,307.874878 
	C411.357147,312.964996 396.267548,307.579437 382.913513,296.296692 
	C373.744965,288.550232 367.003540,278.915009 361.569885,267.822449 
	C361.212646,265.173798 361.010254,262.858551 360.984100,260.541290 
	C360.564209,223.311295 360.166840,186.081009 359.712433,148.388992 
z"/>
<path fill="#FDFDFD" opacity="1.000000" stroke="none" 
	d="
M514.236694,189.872803 
	C523.168884,194.854172 532.139771,199.467911 541.124329,204.055054 
	C544.520081,205.788727 547.947205,207.460968 552.035400,209.497665 
	C539.048828,215.274673 526.612000,220.807129 514.244019,226.308945 
	C515.506897,251.721664 535.155579,270.777679 560.032166,269.729797 
	C550.427063,287.777313 538.184937,302.093140 518.503906,307.772827 
	C496.379028,314.157776 479.474884,304.403931 465.452332,289.228546 
	C498.900330,233.421982 498.634583,178.358841 465.732422,122.622101 
	C481.229767,103.135246 510.556763,92.914345 536.333801,112.540459 
	C547.755432,121.236671 560.182068,138.303940 563.852844,151.183121 
	C555.940491,148.306259 548.208984,147.729660 540.573547,151.396591 
	C531.641541,155.686249 525.291504,162.641479 521.093689,171.373199 
	C518.308594,177.166489 516.517212,183.437454 514.236694,189.872803 
z"/>
</svg>