<?xml version="1.0" standalone="no"?>
<!DOCTYPE svg PUBLIC "-//W3C//DTD SVG 20010904//EN"
 "http://www.w3.org/TR/2001/REC-SVG-20010904/DTD/svg10.dtd">
<svg version="1.0" xmlns="http://www.w3.org/2000/svg"
 width="916.000000pt" height="410.000000pt" viewBox="0 0 916.000000 410.000000"
 preserveAspectRatio="xMidYMid meet">

<g transform="translate(0.000000,410.000000) scale(0.100000,-0.100000)"
fill="#000000" stroke="none">
<path d="M3978 3155 c-81 -28 -114 -46 -238 -135 -101 -73 -174 -138 -232
-208 -32 -39 -38 -42 -62 -32 -71 27 -175 4 -226 -49 -52 -55 -60 -92 -67
-325 -5 -180 -9 -212 -24 -227 -19 -19 -140 -33 -249 -27 l-65 3 -11 286 c-7
164 -17 302 -24 323 -28 84 -104 136 -200 135 -73 -1 -114 -17 -160 -63 l-38
-37 -46 35 c-136 103 -360 166 -548 152 -117 -8 -167 -21 -263 -66 -341 -163
-408 -618 -131 -895 89 -89 174 -140 352 -211 76 -31 153 -63 169 -71 47 -24
85 -64 85 -91 0 -39 -68 -97 -130 -112 -92 -22 -166 3 -271 90 -125 104 -307
89 -386 -32 -41 -62 -45 -159 -9 -232 49 -100 192 -208 351 -263 75 -26 90
-28 250 -28 161 0 175 1 259 29 93 31 206 98 260 155 17 17 33 31 37 31 3 0 9
-22 11 -49 7 -70 43 -137 91 -169 34 -23 53 -27 121 -30 69 -2 87 1 121 20 97
57 121 158 111 483 -4 116 -3 215 1 221 5 6 63 14 138 18 72 4 141 8 155 9
l25 2 6 -220 c6 -244 13 -283 65 -344 44 -51 101 -73 180 -69 l61 3 63 -78
c141 -176 313 -267 503 -267 139 0 249 39 381 136 l76 55 70 -55 c121 -95 235
-136 373 -136 92 0 178 20 257 60 75 38 253 167 309 223 43 45 43 45 77 31 18
-8 62 -14 96 -14 101 0 171 53 198 149 5 20 10 145 10 279 0 204 -2 247 -16
267 -8 13 -14 34 -12 47 2 18 16 2 66 -78 34 -56 100 -146 145 -201 46 -54
129 -157 186 -228 57 -72 117 -142 135 -157 50 -44 107 -62 176 -55 104 9 153
61 178 192 l17 85 29 -47 c41 -63 152 -171 219 -211 30 -18 88 -45 129 -60 68
-25 84 -27 238 -27 154 0 170 2 246 28 157 54 292 166 400 332 107 166 150
288 142 410 -12 178 -129 295 -328 326 -110 17 -442 7 -495 -15 -59 -25 -94
-63 -111 -124 -29 -97 12 -189 102 -233 41 -19 67 -23 201 -27 104 -3 153 -8
153 -16 0 -25 -74 -119 -128 -161 -59 -47 -144 -85 -187 -85 -70 0 -170 82
-218 177 -135 267 -18 694 224 823 107 57 167 42 291 -68 56 -50 77 -62 124
-72 146 -30 264 54 264 190 0 75 -31 129 -120 213 -86 81 -181 134 -290 164
-87 23 -271 23 -360 -1 -217 -57 -417 -224 -541 -450 l-27 -49 -7 109 c-9 163
-21 209 -62 254 -43 48 -87 63 -168 58 -49 -3 -70 -10 -99 -31 -72 -56 -71
-45 -74 -500 -2 -357 -5 -407 -17 -397 -8 7 -15 27 -15 44 0 23 -25 72 -87
172 -132 213 -209 347 -278 484 -35 69 -76 137 -92 152 -37 35 -93 58 -142 58
-31 0 -42 5 -56 28 -39 59 -110 134 -178 186 -119 91 -218 126 -357 126 -143
0 -249 -36 -381 -130 l-81 -58 -62 49 c-122 99 -235 139 -391 138 -78 0 -115
-5 -167 -24z m285 -80 c173 -45 328 -186 431 -394 21 -40 35 -75 33 -77 -2 -3
-16 0 -31 6 -15 5 -53 10 -84 10 -119 0 -243 -93 -315 -236 -31 -61 -71 -174
-64 -180 1 -1 87 -44 191 -96 l188 -94 -191 -84 c-105 -46 -191 -87 -191 -91
0 -4 9 -38 21 -75 46 -152 137 -277 237 -326 37 -18 63 -23 125 -23 42 0 77
-2 77 -4 0 -14 -68 -117 -115 -174 -137 -165 -322 -247 -493 -217 -158 27
-323 153 -430 330 l-52 84 -1 386 c-1 212 -4 480 -8 595 l-6 210 37 75 c139
281 404 437 641 375z m902 0 c168 -44 325 -187 427 -389 21 -43 38 -80 36 -82
-2 -2 -22 1 -44 7 -54 15 -151 6 -201 -20 -54 -27 -135 -110 -172 -175 -27
-47 -86 -205 -79 -211 2 -1 88 -45 191 -97 l188 -94 -190 -84 c-131 -57 -191
-89 -191 -99 0 -40 64 -191 105 -253 81 -117 184 -175 296 -165 32 3 59 3 59
0 0 -3 -16 -32 -36 -64 -144 -237 -370 -366 -577 -329 -96 17 -197 70 -273
144 l-63 61 53 87 c141 230 204 488 193 793 -11 284 -77 513 -207 714 l-41 64
56 52 c137 128 314 180 470 140z m-3485 -211 c0 -8 -7 -14 -15 -14 -15 0 -21
21 -9 33 10 9 24 -2 24 -19z m-73 -20 c4 -12 -3 -24 -23 -38 -60 -43 -142
-128 -166 -174 -24 -44 -39 -87 -53 -154 -4 -19 -12 -28 -25 -28 -17 0 -19 5
-13 33 22 115 70 197 176 303 75 75 93 85 104 58z m940 -10 c3 -10 -7 -27 -29
-47 -20 -18 -39 -47 -43 -65 -6 -31 -8 -32 -21 -15 -20 27 -18 37 29 92 45 55
54 60 64 35z m73 -20 c0 -16 -16 -19 -25 -4 -8 13 4 32 16 25 5 -4 9 -13 9
-21z m4636 11 c8 -20 -13 -45 -38 -45 -17 0 -18 3 -8 15 7 8 10 22 6 30 -4 10
1 15 15 15 11 0 22 -7 25 -15z m-741 -35 c0 -7 -6 -15 -12 -17 -8 -3 -13 4
-13 17 0 13 5 20 13 18 6 -3 12 -11 12 -18z m-79 -4 c3 -8 -3 -27 -13 -42 -14
-22 -19 -55 -23 -158 -4 -107 -8 -131 -20 -134 -14 -2 -16 16 -15 130 0 123 2
136 23 166 13 17 21 32 17 32 -3 0 -3 5 0 10 9 14 25 12 31 -4z m691 -23 c5
-12 -4 -26 -32 -47 -145 -117 -214 -203 -281 -356 -25 -56 -48 -96 -58 -98
-23 -5 -21 6 19 99 60 139 179 298 274 363 23 16 41 35 41 42 0 20 29 17 37
-3z m-1442 -2 c3 -5 1 -12 -4 -15 -5 -3 -11 1 -15 9 -6 16 9 21 19 6z m-2345
-44 c0 -8 -11 -24 -25 -37 -33 -31 -45 -73 -53 -178 -6 -71 -10 -87 -24 -90
-15 -3 -18 4 -18 40 1 98 20 182 50 220 17 20 30 42 30 47 0 6 9 11 20 11 11
0 20 -6 20 -13z m66 2 c10 -17 -13 -36 -27 -22 -12 12 -4 33 11 33 5 0 12 -5
16 -11z m-1416 -209 c24 -12 66 -44 94 -70 75 -70 107 -84 198 -84 l78 -1 0
-167 c0 -93 -3 -168 -6 -168 -3 0 -29 20 -57 45 -64 55 -165 109 -319 168
-179 70 -221 96 -255 161 -17 32 -11 87 12 106 54 44 178 49 255 10z m5445
-404 c27 -20 6 -42 -46 -49 -42 -6 -84 -36 -95 -69 -6 -21 -34 -25 -34 -4 0
22 59 89 98 113 45 26 53 27 77 9z m71 -7 c10 -17 -13 -36 -27 -22 -12 12 -4
33 11 33 5 0 12 -5 16 -11z m239 -404 c0 -11 -8 -21 -17 -23 -14 -3 -18 3 -18
23 0 20 4 26 18 23 9 -2 17 -12 17 -23z m-37 -57 c7 -34 -191 -198 -239 -198
-17 0 -17 2 4 26 12 14 38 34 58 44 53 27 139 109 139 132 0 24 33 21 38 -4z
m-6333 -18 c3 -6 -1 -13 -10 -16 -19 -8 -30 0 -20 15 8 14 22 14 30 1z m720
-1 c10 -15 -1 -23 -20 -15 -9 3 -13 10 -10 16 8 13 22 13 30 -1z m-780 -82
c-21 -50 -19 -103 6 -154 12 -24 18 -50 15 -58 -7 -18 -39 -20 -33 -2 2 6 -7
35 -20 62 -32 69 -31 86 13 204 4 13 7 12 20 0 13 -14 13 -19 -1 -52z m735 14
c0 -25 -55 -67 -120 -92 -50 -19 -96 -26 -74 -11 6 4 13 14 16 23 4 9 34 26
68 39 40 15 65 30 68 42 6 25 42 24 42 -1z"/>
</g>
</svg>
